<svg width="24" height="25" viewBox="0 0 24 25" fill="none" xmlns="http://www.w3.org/2000/svg">
<path d="M2.52319 18.7092L6.15519 7.18921H8.97919L12.6112 18.7092H10.6272L7.33119 8.37321H7.76319L4.50719 18.7092H2.52319ZM4.54719 16.2132V14.4132H10.5952V16.2132H4.54719Z" fill="#74838C"/>
<path d="M18.2096 18.9492C17.3669 18.9492 16.6602 18.7492 16.0896 18.3492C15.5189 17.9492 15.0896 17.4052 14.8016 16.7172C14.5136 16.0239 14.3696 15.2479 14.3696 14.3892C14.3696 13.5199 14.5136 12.7412 14.8016 12.0532C15.0896 11.3652 15.5109 10.8239 16.0656 10.4292C16.6256 10.0292 17.3162 9.82921 18.1376 9.82921C18.9536 9.82921 19.6602 10.0292 20.2576 10.4292C20.8602 10.8239 21.3269 11.3652 21.6576 12.0532C21.9882 12.7359 22.1536 13.5145 22.1536 14.3892C22.1536 15.2532 21.9909 16.0292 21.6656 16.7172C21.3402 17.4052 20.8816 17.9492 20.2896 18.3492C19.6976 18.7492 19.0042 18.9492 18.2096 18.9492ZM14.0416 18.7092V7.18921H15.9856V12.6452H15.7456V18.7092H14.0416ZM17.9136 17.2212C18.4149 17.2212 18.8282 17.0959 19.1536 16.8452C19.4789 16.5945 19.7189 16.2559 19.8736 15.8292C20.0336 15.3972 20.1136 14.9172 20.1136 14.3892C20.1136 13.8665 20.0336 13.3919 19.8736 12.9652C19.7136 12.5332 19.4656 12.1919 19.1296 11.9412C18.7936 11.6852 18.3669 11.5572 17.8496 11.5572C17.3589 11.5572 16.9589 11.6772 16.6496 11.9172C16.3402 12.1519 16.1109 12.4825 15.9616 12.9092C15.8176 13.3305 15.7456 13.8239 15.7456 14.3892C15.7456 14.9492 15.8176 15.4425 15.9616 15.8692C16.1109 16.2959 16.3429 16.6292 16.6576 16.8692C16.9776 17.1039 17.3962 17.2212 17.9136 17.2212Z" fill="#74838C"/>
</svg>
