<svg width="24" height="24" viewBox="0 0 24 24" fill="none" xmlns="http://www.w3.org/2000/svg">
<g clip-path="url(#clip0)">
<path fill-rule="evenodd" clip-rule="evenodd" d="M9.51074 7L12.0004 2C14.7618 2 17.2618 3.1193 19.0715 4.92891L17.2963 10.2249L15.7937 10.7285C15.2624 9.14272 13.7647 8 12 8C11.3593 8 10.7538 8.15062 10.217 8.41839L9.51074 7Z" fill="#C3CACE"/>
<path fill-rule="evenodd" clip-rule="evenodd" d="M14.8286 14.8285C15.5525 14.1046 16.0002 13.1046 16.0002 12C16.0002 11.3592 15.8496 10.7537 15.5818 10.2168L17.0002 9.5105L22.0002 12.0001C22.0002 14.7616 20.8809 17.2615 19.0713 19.0712L14.8286 14.8285Z" fill="#9EA8AE"/>
<path fill-rule="evenodd" clip-rule="evenodd" d="M14.8286 9.17158L19.0712 4.92896C21.0239 6.88157 22.0002 9.44079 22.0002 12H16.0002C16.0002 12 16.0002 12 16.0002 12C16.0002 10.8954 15.5525 9.89544 14.8286 9.17158Z" fill="#B2BBC0"/>
<path fill-rule="evenodd" clip-rule="evenodd" d="M4.92871 4.92895C6.88133 2.97633 9.44056 2 11.9998 2V8C10.2352 8.00009 8.73757 9.14277 8.20632 10.7285L6.70383 10.2249L4.92871 4.92895Z" fill="#B2BBC0"/>
<path fill-rule="evenodd" clip-rule="evenodd" d="M2 12C2 9.2386 3.1193 6.7386 4.92895 4.92896L9.17157 9.17158C8.44771 9.89544 8 10.8954 8 12C8 12.6408 8.15068 13.2464 8.41854 13.7833L7 14.4896L2 12Z" fill="#74838C"/>
<path fill-rule="evenodd" clip-rule="evenodd" d="M2 12C2 9.2386 3.1193 6.7386 4.92895 4.92896L9.17157 9.17158C8.44771 9.89544 8 10.8954 8 12C8 12.6408 8.15068 13.2464 8.41854 13.7833L7 14.4896L2 12Z" fill="white" fill-opacity="0.3"/>
<path fill-rule="evenodd" clip-rule="evenodd" d="M8 12H2C2 14.5592 2.97633 17.1184 4.92895 19.0711L10.2249 17.2959L10.7285 15.7937C9.14267 15.2624 8 13.7646 8 12Z" fill="#74838C"/>
<path fill-rule="evenodd" clip-rule="evenodd" d="M8 12H2C2 14.5592 2.97633 17.1184 4.92895 19.0711L10.2249 17.2959L10.7285 15.7937C9.14267 15.2624 8 13.7646 8 12Z" fill="#828F98"/>
<path fill-rule="evenodd" clip-rule="evenodd" d="M13.7831 15.5816C13.2463 15.8494 12.6407 16.0001 12 16.0001C10.8954 16.0001 9.89533 15.5523 9.17146 14.8284L4.92871 19.0711C6.73836 20.8808 9.23837 22.0001 11.9998 22.0001L14.4894 17.0001L13.7831 15.5816Z" fill="#74838C"/>
<path fill-rule="evenodd" clip-rule="evenodd" d="M13.7831 15.5816C13.2463 15.8494 12.6407 16.0001 12 16.0001C10.8954 16.0001 9.89533 15.5523 9.17146 14.8284L4.92871 19.0711C6.73836 20.8808 9.23837 22.0001 11.9998 22.0001L14.4894 17.0001L13.7831 15.5816Z" fill="#74838C"/>
<path fill-rule="evenodd" clip-rule="evenodd" d="M14.8284 14.8284C14.1046 15.5522 13.1046 15.9999 12 15.9999V21.9999C14.5592 21.9999 17.1184 21.0237 19.0711 19.071L15 14.9999L14.8284 14.8284Z" fill="#828F98"/>
</g>
<defs>
<clipPath id="clip0">
<rect width="20.0002" height="20.0001" fill="white" transform="translate(2 2)"/>
</clipPath>
</defs>
</svg>
