<svg width="21" height="20" viewBox="0 0 21 20" fill="none" xmlns="http://www.w3.org/2000/svg">
<path fill-rule="evenodd" clip-rule="evenodd" d="M11.3333 19.1666H9.66667L9.66667 0.833252L11.3333 0.833252L11.3333 19.1666ZM3 15.8333L3 4.16659C3 3.24992 3.75 2.49992 4.66667 2.49992L8 2.49992V4.16659L4.66667 4.16659L4.66667 15.8333H8V17.4999H4.66667C3.75 17.4999 3 16.7499 3 15.8333ZM16.3333 7.49992L18 7.49992V5.83325L16.3333 5.83325V7.49992ZM13 17.4999L14.6667 17.4999L14.6667 15.8333H13L13 17.4999ZM16.3333 2.49992V4.16658H18C18 3.24992 17.25 2.49992 16.3333 2.49992ZM16.3333 14.1666H18V12.4999H16.3333V14.1666ZM14.6667 4.16658H13V2.49992H14.6667V4.16658ZM16.3333 10.8333H18V9.16659H16.3333V10.8333ZM18 15.8333C18 16.7499 17.25 17.4999 16.3333 17.4999L16.3333 15.8333H18Z" fill="#B8BFC3"/>
</svg>
