<svg width="21" height="20" viewBox="0 0 21 20" fill="none" xmlns="http://www.w3.org/2000/svg">
<path fill-rule="evenodd" clip-rule="evenodd" d="M1.33366 10.8333V9.16667H19.667V10.8333H1.33366ZM4.66699 2.5H16.3337C17.2503 2.5 18.0003 3.25 18.0003 4.16667V7.5H16.3337V4.16667H4.66699V7.5H3.00033V4.16667C3.00033 3.25 3.75033 2.5 4.66699 2.5ZM13.0003 15.8333V17.5H14.667V15.8333H13.0003ZM3.00032 12.5V14.1667H4.66699V12.5H3.00032ZM18.0003 15.8333H16.3337V17.5C17.2503 17.5 18.0003 16.75 18.0003 15.8333ZM6.33366 15.8333V17.5H8.00033V15.8333H6.33366ZM16.3337 14.1667V12.5H18.0003V14.1667H16.3337ZM9.66699 15.8333V17.5H11.3337V15.8333H9.66699ZM4.66699 17.5C3.75033 17.5 3.00032 16.75 3.00032 15.8333H4.66699V17.5Z" fill="#B8BFC3"/>
</svg>
