<svg width="11" height="11" viewBox="0 0 11 11" fill="none" xmlns="http://www.w3.org/2000/svg">
<path d="M4.63158 6.28633V10.6594H0V6.28633H4.63158ZM3.47368 7.3796H1.15789V9.56615H3.47368V7.3796ZM5.21053 0L8.39474 4.91973H2.02632L5.21053 0ZM5.21053 2.11002L4.09895 3.82646H6.32211L5.21053 2.11002ZM8.39474 6.01301C9.8421 6.01301 11 7.10628 11 8.47287C11 9.83947 9.8421 10.9327 8.39474 10.9327C6.94737 10.9327 5.78947 9.83947 5.78947 8.47287C5.78947 7.10628 6.94737 6.01301 8.39474 6.01301ZM8.39474 7.10628C8.01087 7.10628 7.64273 7.25026 7.37129 7.50655C7.09986 7.76283 6.94737 8.11043 6.94737 8.47287C6.94737 8.83532 7.09986 9.18291 7.37129 9.4392C7.64273 9.69549 8.01087 9.83947 8.39474 9.83947C8.7786 9.83947 9.14675 9.69549 9.41818 9.4392C9.68961 9.18291 9.8421 8.83532 9.8421 8.47287C9.8421 8.11043 9.68961 7.76283 9.41818 7.50655C9.14675 7.25026 8.7786 7.10628 8.39474 7.10628Z" fill="#74838C"/>
</svg>
