<svg width="24" height="25" viewBox="0 0 24 25" fill="#74838C"   xmlns="http://www.w3.org/2000/svg">
<path d="M5.99683 18.9492C5.37283 18.9492 4.84483 18.8319 4.41283 18.5972C3.98083 18.3572 3.65283 18.0399 3.42883 17.6452C3.21016 17.2505 3.10083 16.8159 3.10083 16.3412C3.10083 15.9252 3.17016 15.5519 3.30883 15.2212C3.4475 14.8852 3.66083 14.5972 3.94883 14.3572C4.23683 14.1119 4.61016 13.9119 5.06883 13.7572C5.4155 13.6452 5.82083 13.5439 6.28483 13.4532C6.75416 13.3625 7.26083 13.2799 7.80483 13.2052C8.35416 13.1252 8.9275 13.0399 9.52483 12.9492L8.83683 13.3412C8.84216 12.7439 8.70883 12.3039 8.43683 12.0212C8.16483 11.7385 7.70616 11.5972 7.06083 11.5972C6.6715 11.5972 6.2955 11.6879 5.93283 11.8692C5.57016 12.0505 5.31683 12.3625 5.17283 12.8052L3.41283 12.2532C3.62616 11.5225 4.0315 10.9359 4.62883 10.4932C5.2315 10.0505 6.04216 9.82921 7.06083 9.82921C7.82883 9.82921 8.5035 9.95454 9.08483 10.2052C9.6715 10.4559 10.1062 10.8665 10.3888 11.4372C10.5435 11.7412 10.6368 12.0532 10.6688 12.3732C10.7008 12.6879 10.7168 13.0319 10.7168 13.4052V18.7092H9.02883V16.8372L9.30883 17.1412C8.9195 17.7652 8.4635 18.2239 7.94083 18.5172C7.4235 18.8052 6.7755 18.9492 5.99683 18.9492ZM6.38083 17.4132C6.81816 17.4132 7.1915 17.3359 7.50083 17.1812C7.81016 17.0265 8.0555 16.8372 8.23683 16.6132C8.4235 16.3892 8.54883 16.1785 8.61283 15.9812C8.71416 15.7359 8.77016 15.4559 8.78083 15.1412C8.79683 14.8212 8.80483 14.5625 8.80483 14.3652L9.39683 14.5412C8.8155 14.6319 8.31683 14.7119 7.90083 14.7812C7.48483 14.8505 7.1275 14.9172 6.82883 14.9812C6.53016 15.0399 6.26616 15.1065 6.03683 15.1812C5.81283 15.2612 5.6235 15.3545 5.46883 15.4612C5.31416 15.5679 5.19416 15.6905 5.10883 15.8292C5.02883 15.9679 4.98883 16.1305 4.98883 16.3172C4.98883 16.5305 5.04216 16.7199 5.14883 16.8852C5.2555 17.0452 5.41016 17.1732 5.61283 17.2692C5.82083 17.3652 6.07683 17.4132 6.38083 17.4132Z"  />
<path d="M16.9516 18.9492C16.1089 18.9492 15.4022 18.7492 14.8316 18.3492C14.2609 17.9492 13.8316 17.4052 13.5436 16.7172C13.2556 16.0239 13.1116 15.2479 13.1116 14.3892C13.1116 13.5199 13.2556 12.7412 13.5436 12.0532C13.8316 11.3652 14.2529 10.8239 14.8076 10.4292C15.3676 10.0292 16.0582 9.82921 16.8796 9.82921C17.6956 9.82921 18.4022 10.0292 18.9996 10.4292C19.6022 10.8239 20.0689 11.3652 20.3996 12.0532C20.7302 12.7359 20.8956 13.5145 20.8956 14.3892C20.8956 15.2532 20.7329 16.0292 20.4076 16.7172C20.0822 17.4052 19.6236 17.9492 19.0316 18.3492C18.4396 18.7492 17.7462 18.9492 16.9516 18.9492ZM12.7836 18.7092V7.18921H14.7276V12.6452H14.4876V18.7092H12.7836ZM16.6556 17.2212C17.1569 17.2212 17.5702 17.0959 17.8956 16.8452C18.2209 16.5945 18.4609 16.2559 18.6156 15.8292C18.7756 15.3972 18.8556 14.9172 18.8556 14.3892C18.8556 13.8665 18.7756 13.3919 18.6156 12.9652C18.4556 12.5332 18.2076 12.1919 17.8716 11.9412C17.5356 11.6852 17.1089 11.5572 16.5916 11.5572C16.1009 11.5572 15.7009 11.6772 15.3916 11.9172C15.0822 12.1519 14.8529 12.4825 14.7036 12.9092C14.5596 13.3305 14.4876 13.8239 14.4876 14.3892C14.4876 14.9492 14.5596 15.4425 14.7036 15.8692C14.8529 16.2959 15.0849 16.6292 15.3996 16.8692C15.7196 17.1039 16.1382 17.2212 16.6556 17.2212Z"  />
</svg>
