<svg width="24" height="25" viewBox="0 0 24 25" fill="none" xmlns="http://www.w3.org/2000/svg">
<path d="M2.40601 18.7092L6.03801 7.18921H8.86201L12.494 18.7092H10.51L7.21401 8.37321H7.64601L4.39001 18.7092H2.40601ZM4.43001 16.2132V14.4132H10.478V16.2132H4.43001Z" fill="#74838C"/>
<path d="M13.9404 18.7092V7.18921H18.5084C19.287 7.18921 19.9244 7.34654 20.4204 7.66121C20.9217 7.97054 21.2924 8.36788 21.5324 8.85321C21.7777 9.33854 21.9004 9.83988 21.9004 10.3572C21.9004 10.9919 21.7484 11.5305 21.4444 11.9732C21.1457 12.4159 20.7377 12.7145 20.2204 12.8692V12.4692C20.9457 12.6345 21.495 12.9785 21.8684 13.5012C22.247 14.0239 22.4364 14.6185 22.4364 15.2852C22.4364 15.9679 22.3057 16.5652 22.0444 17.0772C21.783 17.5892 21.3937 17.9892 20.8764 18.2772C20.3644 18.5652 19.7297 18.7092 18.9724 18.7092H13.9404ZM15.8924 16.8932H18.7324C19.0684 16.8932 19.3697 16.8265 19.6364 16.6932C19.903 16.5545 20.111 16.3625 20.2604 16.1172C20.415 15.8665 20.4924 15.5705 20.4924 15.2292C20.4924 14.9199 20.4257 14.6425 20.2924 14.3972C20.159 14.1519 19.9644 13.9572 19.7084 13.8132C19.4524 13.6639 19.1457 13.5892 18.7884 13.5892H15.8924V16.8932ZM15.8924 11.7892H18.4844C18.7617 11.7892 19.0097 11.7359 19.2284 11.6292C19.447 11.5225 19.6204 11.3652 19.7484 11.1572C19.8764 10.9492 19.9404 10.6932 19.9404 10.3892C19.9404 9.98921 19.8124 9.65588 19.5564 9.38921C19.3004 9.12254 18.943 8.98921 18.4844 8.98921H15.8924V11.7892Z" fill="#74838C"/>
</svg>
